<?xml version="1.0" encoding="UTF-8"?>
<svg width="75px" height="75px" viewBox="0 0 75 75" version="1.1" xmlns="http://www.w3.org/2000/svg" xmlns:xlink="http://www.w3.org/1999/xlink">
    <title>credit-icon</title>
    <g id="credit-icon" stroke="none" stroke-width="1" fill="none" fill-rule="evenodd">
        <g id="icons/finance/cashflow-copy-2">
            <g id="Group" fill="#FFFFFF" opacity="0">
                <g id="icon-bounding-box">
                    <rect id="Ø-library-elements/Icons/icon-bounding-box" x="0" y="0" width="75" height="75"></rect>
                </g>
            </g>
            <path d="M68.75,15.625 L68.75,59.375 L6.25,59.375 L6.25,15.625 L68.75,15.625 Z M26.290625,18.75 L9.375,18.75 L9.375,56.25 L26.290625,56.25 C19.6769871,52.3186696 15.6236468,45.1938654 15.6236468,37.5 C15.6236468,29.8061346 19.6769871,22.6813304 26.290625,18.75 L26.290625,18.75 Z M37.5,18.75 C27.1489451,18.7603356 18.7603356,27.1489451 18.75,37.5 C18.75,47.8553391 27.1446609,56.25 37.5,56.25 C47.8553391,56.25 56.25,47.8553391 56.25,37.5 C56.25,27.1446609 47.8553391,18.75 37.5,18.75 Z M65.625,18.75 L48.709375,18.75 C55.3230129,22.6813304 59.3763532,29.8061346 59.3763532,37.5 C59.3763532,45.1938654 55.3230129,52.3186696 48.709375,56.25 L48.709375,56.25 L65.625,56.25 L65.625,18.75 Z M39.0625,26.5625 L39.0625,35.9375 L48.4375,35.9375 L48.4375,39.0625 L39.0625,39.0625 L39.0625,48.4375 L35.9375,48.4375 L35.9375,39.0625 L26.5625,39.0625 L26.5625,35.9375 L35.9375,35.9375 L35.9375,26.5625 L39.0625,26.5625 Z" id="icon" fill="#e7e74f"></path>
        </g>
    </g>
</svg>
