<?xml version="1.0" encoding="UTF-8"?>
<svg width="75px" height="75px" viewBox="0 0 75 75" version="1.1" xmlns="http://www.w3.org/2000/svg" xmlns:xlink="http://www.w3.org/1999/xlink">
    <title>work-icon</title>
    <g id="work-icon" stroke="none" stroke-width="1" fill="none" fill-rule="evenodd">
        <g id="Group" transform="translate(-0.000000, 0.000000)">
            <g id="icons/finance/cashflow-copy-3" transform="translate(-0.000000, 0.000000)">
                <g id="Group" fill="#FFFFFF" opacity="0">
                    <g id="icon-bounding-box">
                        <rect id="Ø-library-elements/Icons/icon-bounding-box" x="0" y="0" width="75" height="75"></rect>
                    </g>
                </g>
                <path d="M62.946875,18.75 L47.059375,18.75 C46.50625,15.1375 44.215625,12.5 41.3875,12.5 L33.6125,12.5 C30.8,12.5 28.49375,15.1375 27.940625,18.75 L12.053125,18.75 C8.85079362,18.7534411 6.25516598,21.3476709 6.25,24.55 L6.25,56.7 C6.25516598,59.9023291 8.85079362,62.4965589 12.053125,62.5 L62.946875,62.5 C66.1492064,62.4965589 68.744834,59.9023291 68.75,56.7 L68.75,24.55 C68.744834,21.3476709 66.1492064,18.7534411 62.946875,18.75 Z M33.6125,15.625 L41.3875,15.625 C42.375,15.625 43.44375,16.875 43.86875,18.75 L31.13125,18.75 C31.5625,16.875 32.625,15.625 33.6125,15.625 Z M60.8,21.875 L59.128125,50 L56.25,50 L56.25,46.875 L53.125,46.875 L53.125,50 L21.875,50 L21.875,46.875 L18.75,46.875 L18.75,50 L15.771875,50 L14.2375,21.875 L60.8,21.875 Z M65.625,56.7 C65.6232755,58.1778671 64.4247431,59.375 62.946875,59.375 L12.053125,59.375 C10.5752569,59.375 9.37672447,58.1778671 9.375,56.7 L9.375,24.55 C9.375,23.4337641 10.0713922,22.436037 11.11875,22.05 L12.8125,53.125 L18.75,53.125 L18.75,56.25 L21.875,56.25 L21.875,53.125 L53.125,53.125 L53.125,56.25 L56.25,56.25 L56.25,53.125 L62.065625,53.125 L63.9125,22.06875 C64.9400057,22.4640385 65.6198675,23.4490937 65.625,24.55 L65.625,56.7 Z" id="icon" fill="#e7e74f"></path>
            </g>
        </g>
    </g>
</svg>
