<?xml version="1.0" encoding="UTF-8"?>
<svg width="75px" height="75px" viewBox="0 0 75 75" version="1.1" xmlns="http://www.w3.org/2000/svg" xmlns:xlink="http://www.w3.org/1999/xlink">
    <title>loans-icon</title>
    <g id="loans-icon" stroke="none" stroke-width="1" fill="none" fill-rule="evenodd">
        <g id="Group" transform="translate(-0.000000, 0.000000)">
            <g id="icons/finance/cashflow-copy-4" transform="translate(-0.000000, 0.000000)">
                <g id="Group" fill="#FFFFFF" opacity="0">
                    <g id="icon-bounding-box">
                        <rect id="Ø-library-elements/Icons/icon-bounding-box" x="0" y="0" width="75" height="75"></rect>
                    </g>
                </g>
                <path d="M56.25,6.25 L56.25,25 L53.125,25 L53.125,9.375 L9.375,9.375 L9.375,65.625 L53.125,65.625 L53.125,53.125 L56.25,53.125 L56.25,68.75 L6.25,68.75 L6.25,6.25 L56.25,6.25 Z M63.15,23.6687331 C64.5993274,23.7113905 65.9794482,24.2982486 67.015625,25.3125 C68.0789064,26.3181477 68.7022064,27.7028843 68.75,29.165625 C68.7776882,30.2330924 68.3770772,31.2672541 67.6375,32.0375 L67.6375,32.0375 L46.475,53.684375 L38.75,54.2375 L39.11875,46.5 L60.296875,24.846875 C61.0529673,24.0897212 62.0799777,23.6656435 63.15,23.6687331 Z M63.1875,26.803125 C62.9496054,26.7941855 62.7175821,26.8782519 62.540625,27.0375 L62.540625,27.0375 L42.18125,47.834375 L42.040625,50.86875 L45.071875,50.65 L65.40625,29.85 C65.5613947,29.6690611 65.6398699,29.4347566 65.625,29.196875 C65.5799422,28.5670563 65.2946693,27.9786109 64.828125,27.553125 L64.828125,27.553125 L64.6739855,27.4174438 C64.2509023,27.0718602 63.7341227,26.8573572 63.1875,26.803125 Z M31.25,14.0625 L31.25,19.15625 C34.9646067,19.3589755 37.9784818,22.2362782 38.353125,25.9375 L38.353125,25.9375 L38.353125,26.809375 L35.228125,26.825 L35.228125,25.9375 C35.228125,23.896875 32.690625,22.16875 29.6875,22.16875 C26.684375,22.16875 24.146875,23.896875 24.146875,25.9375 C24.146875,26.75625 24.146875,28.98125 29.875,29.703125 C35.5,30.403125 38.353125,32.71875 38.353125,36.578125 C37.9712952,40.2732111 34.9592851,43.1421077 31.25,43.34375 L31.25,43.34375 L31.25,48.4375 L28.125,48.4375 L28.125,43.34375 C24.4220834,43.1434252 21.412302,40.2845963 21.021875,36.596875 L21.021875,36.596875 L21.021875,35.709375 L24.146875,35.709375 L24.146875,36.596875 C24.146875,38.6375 26.684375,40.365625 29.6875,40.365625 C32.690625,40.365625 35.228125,38.6375 35.228125,36.596875 C35.228125,35.759375 35.228125,33.534375 29.4875,32.8125 C23.871875,32.1125 21.021875,29.8 21.021875,25.9375 C21.3965182,22.2362782 24.4103933,19.3589755 28.125,19.15625 L28.125,19.15625 L28.125,14.0625 L31.25,14.0625 Z" id="icon" fill="#e7e74f"></path>
            </g>
        </g>
    </g>
</svg>
